<svg xmlns="http://www.w3.org/2000/svg" version="1.1" width="1080px" height="1080px" style="shape-rendering:geometricPrecision; text-rendering:geometricPrecision; image-rendering:optimizeQuality; fill-rule:evenodd; clip-rule:evenodd" xmlns:xlink="http://www.w3.org/1999/xlink">
    <g><path style="opacity:1" fill="#c0bebe" d="M 387.5,359.5 C 386.139,364.087 383.972,368.42 381,372.5C 380.661,375.036 380.161,377.536 379.5,380C 376.359,381.899 375.026,384.733 375.5,388.5C 374.812,393.242 375.812,394.075 378.5,391C 380.5,390.333 382.5,390.333 384.5,391C 391.483,394.807 394.983,400.64 395,408.5C 398.776,406.085 402.943,404.918 407.5,405C 411.203,401.633 414.536,397.966 417.5,394C 421.734,391.698 425.734,389.031 429.5,386C 439.569,385.068 443.735,389.568 442,399.5C 439.477,402.649 437.144,405.649 435,408.5C 438.479,406.006 442.313,405.173 446.5,406C 447.83,409.368 447.33,412.535 445,415.5C 436.829,422.449 427.496,427.115 417,429.5C 412.789,428.435 409.123,426.435 406,423.5C 405.862,416.02 404.028,415.52 400.5,422C 391.504,425.944 384.837,423.444 380.5,414.5C 379.811,412.662 379.478,410.995 379.5,409.5C 374.466,415.735 369.799,422.235 365.5,429C 357.857,432.608 352.857,430.442 350.5,422.5C 354.668,411.83 358.334,400.997 361.5,390C 360.975,389.308 360.308,388.808 359.5,388.5C 354.485,391.18 349.152,392.847 343.5,393.5C 339.71,403.766 335.876,414.1 332,424.5C 330.791,428.276 328.624,431.276 325.5,433.5C 324.526,431.915 323.026,430.915 321,430.5C 320.262,426.29 320.428,422.124 321.5,418C 321.317,416.316 320.65,416.15 319.5,417.5C 321.546,412.72 323.046,407.72 324,402.5C 324.792,400.413 325.959,398.579 327.5,397C 317.146,398.814 313.146,394.647 315.5,384.5C 321.076,382.919 326.742,381.419 332.5,380C 335.805,373.397 338.805,366.73 341.5,360C 346.936,356.217 350.936,357.384 353.5,363.5C 352.25,363.423 351.417,362.756 351,361.5C 350.192,365.027 350.359,368.36 351.5,371.5C 351.67,372.822 351.337,373.989 350.5,375C 351.044,375.717 351.711,376.217 352.5,376.5C 352.389,377.117 352.056,377.617 351.5,378C 356.5,378.667 361.5,378.667 366.5,378C 364.563,377.878 363.23,377.045 362.5,375.5C 363.708,376.234 365.041,376.567 366.5,376.5C 368.823,369.687 371.823,363.187 375.5,357C 378.12,354.729 381.12,354.062 384.5,355C 386.141,356.129 387.141,357.629 387.5,359.5 Z"/></g>
    <g><path style="opacity:1" fill="#e2c490" d="M 296.5,370.5 C 298.595,375.793 298.762,381.126 297,386.5C 273.1,452.854 248.767,519.187 224,585.5C 211.574,613.347 198.907,641.014 186,668.5C 179.72,680.072 172.22,690.738 163.5,700.5C 157.941,707.557 151.274,713.39 143.5,718C 133.249,720.048 122.916,721.048 112.5,721C 107.972,717.904 103.305,715.071 98.5,712.5C 91.2327,707.078 84.066,701.411 77,695.5C 72.3847,688.55 67.3847,681.884 62,675.5C 51.9849,656.135 41.9849,636.802 32,617.5C 29.186,611.507 26.686,605.507 24.5,599.5C 24.3343,595.154 24.501,590.821 25,586.5C 27.8333,583.667 30.6667,580.833 33.5,578C 34.8333,577.333 36.1667,577.333 37.5,578C 41.689,582.221 45.5223,586.721 49,591.5C 54.3902,605.002 59.3902,618.669 64,632.5C 71.7159,647.596 79.7159,662.596 88,677.5C 92.4666,682.968 97.3,688.135 102.5,693C 108.531,696.016 114.531,699.016 120.5,702C 124.255,702.755 127.922,702.589 131.5,701.5C 136.995,699.839 141.162,696.506 144,691.5C 151.099,680.071 157.766,668.404 164,656.5C 172.196,636.914 180.196,617.247 188,597.5C 211.491,531.193 234.824,464.859 258,398.5C 261.619,388.968 265.619,379.635 270,370.5C 278.972,359.895 287.805,359.895 296.5,370.5 Z"/></g>
    <g><path style="opacity:0.075" fill="#aeabbc" d="M 353.5,363.5 C 353.5,365.167 353.5,366.833 353.5,368.5C 351.952,368.821 351.285,369.821 351.5,371.5C 350.359,368.36 350.192,365.027 351,361.5C 351.417,362.756 352.25,363.423 353.5,363.5 Z"/></g>
    <g><path style="opacity:0.025" fill="#ecedf1" d="M 353.5,368.5 C 353.068,369.71 352.401,370.71 351.5,371.5C 351.285,369.821 351.952,368.821 353.5,368.5 Z"/></g>
    <g><path style="opacity:0.992" fill="#cbcad0" d="M 387.5,359.5 C 389.273,360.314 389.773,361.648 389,363.5C 384.98,372.214 380.48,380.547 375.5,388.5C 375.026,384.733 376.359,381.899 379.5,380C 380.161,377.536 380.661,375.036 381,372.5C 383.972,368.42 386.139,364.087 387.5,359.5 Z"/></g>
    <g><path style="opacity:0.951" fill="#a09daa" d="M 362.5,375.5 C 363.23,377.045 364.563,377.878 366.5,378C 361.5,378.667 356.5,378.667 351.5,378C 352.056,377.617 352.389,377.117 352.5,376.5C 355.764,375.676 359.098,375.342 362.5,375.5 Z"/></g>
    <g><path style="opacity:0.082" fill="#c3dfe7" d="M 296.5,368.5 C 296.5,369.167 296.5,369.833 296.5,370.5C 287.805,359.895 278.972,359.895 270,370.5C 265.619,379.635 261.619,388.968 258,398.5C 234.824,464.859 211.491,531.193 188,597.5C 180.196,617.247 172.196,636.914 164,656.5C 157.766,668.404 151.099,680.071 144,691.5C 141.162,696.506 136.995,699.839 131.5,701.5C 131.5,700.833 131.5,700.167 131.5,699.5C 137.451,696.716 141.951,692.383 145,686.5C 149,679.833 153,673.167 157,666.5C 173.105,631.182 187.438,595.182 200,558.5C 220.849,496.61 242.849,435.277 266,374.5C 270.484,363.99 278.318,359.49 289.5,361C 292.739,362.736 295.073,365.236 296.5,368.5 Z"/></g>
    <g><path style="opacity:0.235" fill="#c7c7cf" d="M 994.5,405.5 C 991.447,405.111 988.78,405.777 986.5,407.5C 984.315,407.704 982.315,408.37 980.5,409.5C 983.495,406.865 986.995,404.865 991,403.5C 992.459,403.808 993.626,404.475 994.5,405.5 Z"/></g>
    <g><path style="opacity:0.035" fill="#dadbe0" d="M 997.5,406.5 C 999.749,407.08 1001.42,408.413 1002.5,410.5C 1000.25,409.92 998.585,408.587 997.5,406.5 Z"/></g>
    <g><path style="opacity:1" fill="#bebcba" d="M 1000.5,414.5 C 996.649,419.514 991.983,423.681 986.5,427C 983.998,430.333 981.332,433.499 978.5,436.5C 976.901,438.604 975.068,440.604 973,442.5C 971.412,447.855 969.079,452.855 966,457.5C 964.676,464.505 967.51,467.005 974.5,465C 979.541,463.992 979.208,463.492 973.5,463.5C 977.475,461.906 981.642,460.572 986,459.5C 987.33,460.582 988.83,461.249 990.5,461.5C 987.023,462.323 983.356,462.823 979.5,463C 986.799,464.036 994.132,464.536 1001.5,464.5C 1002.84,465.793 1004.51,466.626 1006.5,467C 1010.84,470.621 1010.51,473.621 1005.5,476C 999.5,476.333 993.5,476.667 987.5,477C 980.644,478.913 973.644,479.913 966.5,480C 963.766,480.21 961.266,481.044 959,482.5C 957.768,487.721 957.101,493.054 957,498.5C 953.694,511.447 949.527,524.114 944.5,536.5C 944.667,537.167 944.833,537.833 945,538.5C 945.608,536.934 946.442,535.6 947.5,534.5C 946.018,539.456 944.018,544.123 941.5,548.5C 941.756,546.063 942.423,543.729 943.5,541.5C 938.954,548.78 933.954,556.447 928.5,564.5C 928.957,565.298 929.624,565.631 930.5,565.5C 928.323,571.007 924.99,575.674 920.5,579.5C 921.028,578.153 921.195,576.819 921,575.5C 915.167,582 909.333,588.5 903.5,595C 903.833,595.167 904.167,595.333 904.5,595.5C 906.853,593.477 909.186,591.477 911.5,589.5C 909.57,593.1 906.903,596.1 903.5,598.5C 903.631,597.624 903.298,596.957 902.5,596.5C 901.15,597.95 899.484,598.617 897.5,598.5C 897.335,595.15 897.502,591.817 898,588.5C 900.077,586.924 901.577,584.924 902.5,582.5C 902.043,581.702 901.376,581.369 900.5,581.5C 901.828,576.835 904.161,572.835 907.5,569.5C 906.178,571.311 905.678,573.311 906,575.5C 911.153,566.532 916.32,557.532 921.5,548.5C 921.043,547.702 920.376,547.369 919.5,547.5C 919.66,545.847 920.326,544.514 921.5,543.5C 921.351,544.552 921.517,545.552 922,546.5C 925.278,542.988 926.444,538.988 925.5,534.5C 924.667,534.167 923.833,533.833 923,533.5C 915.149,537.451 906.983,540.617 898.5,543C 893.5,543.667 888.5,543.667 883.5,543C 881,539.833 878.5,536.667 876,533.5C 875.805,534.819 875.972,536.153 876.5,537.5C 874.057,534.948 872.39,531.948 871.5,528.5C 874.203,532.747 874.869,532.414 873.5,527.5C 871.926,526.369 870.259,526.202 868.5,527C 866.167,529.333 863.833,531.667 861.5,534C 863.387,534.163 864.887,533.329 866,531.5C 866.399,531.728 866.565,532.062 866.5,532.5C 864.051,535.556 861.051,537.889 857.5,539.5C 858.463,538.637 858.463,537.97 857.5,537.5C 850.985,540.923 844.319,544.09 837.5,547C 834.447,547.179 831.447,547.679 828.5,548.5C 827.851,552.302 825.851,555.135 822.5,557C 823.819,557.195 825.153,557.028 826.5,556.5C 824.371,558.95 821.704,560.617 818.5,561.5C 818.53,560.503 818.03,559.836 817,559.5C 812.443,561.195 807.943,563.028 803.5,565C 802.304,565.654 802.304,566.154 803.5,566.5C 804.995,565.295 806.328,565.295 807.5,566.5C 805.421,566.971 803.421,567.637 801.5,568.5C 801.53,567.503 801.03,566.836 800,566.5C 793.021,570.248 785.854,573.248 778.5,575.5C 762.583,578.976 746.583,579.31 730.5,576.5C 723.011,574.42 716.345,570.754 710.5,565.5C 706.5,562.167 702.833,558.5 699.5,554.5C 697.512,552.535 696.012,550.202 695,547.5C 694.51,549.545 694.677,551.545 695.5,553.5C 693.838,550.262 692.171,546.929 690.5,543.5C 691.693,543.03 692.36,542.03 692.5,540.5C 688.623,517.377 691.623,495.377 701.5,474.5C 701.043,473.702 700.376,473.369 699.5,473.5C 702.761,464.63 707.761,456.963 714.5,450.5C 713.634,452.144 713.134,453.811 713,455.5C 724.38,441.273 738.213,430.273 754.5,422.5C 757.157,422.065 759.491,421.065 761.5,419.5C 769.715,417.765 778.048,417.098 786.5,417.5C 792.674,419.388 798.674,421.888 804.5,425C 807.719,428.552 810.552,432.385 813,436.5C 813.777,439.429 813.61,442.263 812.5,445C 810.252,446.914 807.752,448.414 805,449.5C 800.408,444.91 795.241,441.077 789.5,438C 768.69,434.826 750.856,440.659 736,455.5C 735.308,456.437 735.475,457.103 736.5,457.5C 732.07,461.92 728.07,466.587 724.5,471.5C 724.92,469.906 725.586,468.406 726.5,467C 726.389,465.278 725.889,465.112 725,466.5C 720.408,472.694 716.075,479.027 712,485.5C 709.722,493.004 707.055,500.337 704,507.5C 701.509,520.578 703.842,532.578 711,543.5C 711.322,541.311 710.822,539.311 709.5,537.5C 714.463,544.131 720.13,550.131 726.5,555.5C 725.402,556.397 725.402,557.23 726.5,558C 736.544,563.121 747.21,564.788 758.5,563C 763.051,561.785 767.718,561.119 772.5,561C 773.416,560.722 774.082,560.222 774.5,559.5C 777.542,559.267 780.208,558.267 782.5,556.5C 795.663,552.501 808.663,548.001 821.5,543C 822.392,539.595 821.392,536.762 818.5,534.5C 818.011,528.491 818.677,522.658 820.5,517C 820.317,515.316 819.65,515.15 818.5,516.5C 819.169,513.151 820.836,510.484 823.5,508.5C 823.369,507.761 823.536,507.094 824,506.5C 827.364,503.109 830.864,500.109 834.5,497.5C 833.2,498.601 832.7,499.934 833,501.5C 843.429,491.875 855.262,484.709 868.5,480C 875.608,479.076 882.608,479.409 889.5,481C 898.065,487.326 897.065,491.659 886.5,494C 888.134,494.494 889.801,494.66 891.5,494.5C 891.189,495.478 890.522,496.145 889.5,496.5C 886.019,494.394 882.353,494.061 878.5,495.5C 880.054,494.105 879.721,493.439 877.5,493.5C 867.559,495.636 858.893,500.136 851.5,507C 852.819,507.195 854.153,507.028 855.5,506.5C 851.5,509.833 847.833,513.5 844.5,517.5C 844.631,516.761 844.464,516.094 844,515.5C 838.819,519.662 836.653,524.828 837.5,531C 839.833,531.667 842.167,531.667 844.5,531C 847.833,529 851.167,527 854.5,525C 862.062,517.27 869.728,509.77 877.5,502.5C 884.025,497.441 888.525,498.774 891,506.5C 891.566,511.183 891.399,515.85 890.5,520.5C 890.442,523.047 891.109,525.38 892.5,527.5C 893.723,528.614 895.056,528.781 896.5,528C 902.212,525.144 908.212,522.977 914.5,521.5C 919.847,521.674 923.347,524.341 925,529.5C 925.464,528.906 925.631,528.239 925.5,527.5C 926.167,527.833 926.833,528.167 927.5,528.5C 927.56,529.043 927.893,529.376 928.5,529.5C 930.381,525.181 932.048,520.848 933.5,516.5C 937.068,507.123 940.068,497.456 942.5,487.5C 941.412,482.229 938.745,481.229 934.5,484.5C 929.833,484.5 925.167,484.5 920.5,484.5C 916.478,481.625 915.478,477.792 917.5,473C 926.064,470.954 934.731,469.287 943.5,468C 948.791,464.585 951.291,459.751 951,453.5C 950.626,455.491 949.793,457.158 948.5,458.5C 948.721,455.933 949.388,453.599 950.5,451.5C 952.008,449.819 953.008,447.819 953.5,445.5C 955.252,437.645 959.252,431.312 965.5,426.5C 965.369,427.239 965.536,427.906 966,428.5C 971.695,420.306 978.528,413.306 986.5,407.5C 993.601,405.296 998.267,407.629 1000.5,414.5 Z"/></g>
    <g><path style="opacity:0.733" fill="#9796a6" d="M 994.5,405.5 C 995.791,405.263 996.791,405.596 997.5,406.5C 998.585,408.587 1000.25,409.92 1002.5,410.5C 1002.5,411.833 1002.5,413.167 1002.5,414.5C 1001.83,414.5 1001.17,414.5 1000.5,414.5C 998.267,407.629 993.601,405.296 986.5,407.5C 988.78,405.777 991.447,405.111 994.5,405.5 Z"/></g>
    <g><path style="opacity:0.388" fill="#c2c1ce" d="M 796.5,418.5 C 793.488,419.005 790.488,418.338 787.5,416.5C 779.778,416.233 772.111,416.566 764.5,417.5C 764.611,416.883 764.944,416.383 765.5,416C 776.14,413.6 786.473,414.434 796.5,418.5 Z"/></g>
    <g><path style="opacity:0.902" fill="#a1a0ac" d="M 986.5,407.5 C 978.528,413.306 971.695,420.306 966,428.5C 965.536,427.906 965.369,427.239 965.5,426.5C 965.75,424.326 966.75,422.659 968.5,421.5C 972.833,417.833 976.833,413.833 980.5,409.5C 982.315,408.37 984.315,407.704 986.5,407.5 Z"/></g>
    <g><path style="opacity:0.911" fill="#7f7f96" d="M 787.5,416.5 C 787.5,417.167 787.167,417.5 786.5,417.5C 778.048,417.098 769.715,417.765 761.5,419.5C 761.833,418.833 762.167,418.167 762.5,417.5C 763.167,417.5 763.833,417.5 764.5,417.5C 772.111,416.566 779.778,416.233 787.5,416.5 Z"/></g>
    <g><path style="opacity:0.255" fill="#cfcfd8" d="M 980.5,409.5 C 976.833,413.833 972.833,417.833 968.5,421.5C 971.5,416.5 975.5,412.5 980.5,409.5 Z"/></g>
    <g><path style="opacity:0.092" fill="#d1d1d8" d="M 762.5,417.5 C 762.167,418.167 761.833,418.833 761.5,419.5C 759.435,419.517 757.435,419.85 755.5,420.5C 757.395,418.759 759.728,417.759 762.5,417.5 Z"/></g>
    <g><path style="opacity:0.886" fill="#9897a6" d="M 761.5,419.5 C 759.491,421.065 757.157,422.065 754.5,422.5C 754.5,421.833 754.5,421.167 754.5,420.5C 754.833,420.5 755.167,420.5 755.5,420.5C 757.435,419.85 759.435,419.517 761.5,419.5 Z"/></g>
    <g><path style="opacity:0.027" fill="#e0e1e6" d="M 996.5,421.5 C 996.5,423.5 995.5,424.5 993.5,424.5C 994.167,423.167 995.167,422.167 996.5,421.5 Z"/></g>
    <g><path style="opacity:0.756" fill="#ada9b8" d="M 325.5,433.5 C 323.833,433.5 322.167,433.5 320.5,433.5C 320.5,431.5 319.5,430.5 317.5,430.5C 317.15,425.964 317.817,421.631 319.5,417.5C 320.65,416.15 321.317,416.316 321.5,418C 320.428,422.124 320.262,426.29 321,430.5C 323.026,430.915 324.526,431.915 325.5,433.5 Z"/></g>
    <g><path style="opacity:0.6" fill="#a6a4af" d="M 754.5,420.5 C 754.5,421.167 754.5,421.833 754.5,422.5C 738.213,430.273 724.38,441.273 713,455.5C 713.134,453.811 713.634,452.144 714.5,450.5C 718.566,447.437 721.899,443.771 724.5,439.5C 724.833,439.5 725.167,439.5 725.5,439.5C 728.089,438.581 730.089,436.914 731.5,434.5C 733.336,431.832 735.669,429.666 738.5,428C 743.708,425.229 749.042,422.729 754.5,420.5 Z"/></g>
    <g><path style="opacity:0.847" fill="#b9b9c1" d="M 1000.5,414.5 C 1001.17,414.5 1001.83,414.5 1002.5,414.5C 1001.19,417.473 999.19,419.807 996.5,421.5C 995.167,422.167 994.167,423.167 993.5,424.5C 988.167,429.167 983.167,434.167 978.5,439.5C 978.5,438.5 978.5,437.5 978.5,436.5C 981.332,433.499 983.998,430.333 986.5,427C 991.983,423.681 996.649,419.514 1000.5,414.5 Z"/></g>
    <g><path style="opacity:0.027" fill="#ece9ee" d="M 317.5,430.5 C 319.5,430.5 320.5,431.5 320.5,433.5C 318.81,433.144 317.81,432.144 317.5,430.5 Z"/></g>
    <g><path style="opacity:0.345" fill="#c9c8d1" d="M 731.5,434.5 C 730.089,436.914 728.089,438.581 725.5,439.5C 726.911,437.086 728.911,435.419 731.5,434.5 Z"/></g>
    <g><path style="opacity:0.004" fill="#eeeef2" d="M 978.5,439.5 C 978.262,441.404 977.262,442.738 975.5,443.5C 975.738,441.596 976.738,440.262 978.5,439.5 Z"/></g>
    <g><path style="opacity:1" fill="#bdbbba" d="M 1047.5,463.5 C 1046.42,465.543 1044.75,466.876 1042.5,467.5C 1042.16,465.775 1041.16,465.275 1039.5,466C 1035.17,468.333 1030.83,470.667 1026.5,473C 1025.75,473.671 1025.41,474.504 1025.5,475.5C 1024.83,475.5 1024.17,475.5 1023.5,475.5C 1021.9,473.396 1020.07,471.396 1018,469.5C 1017.33,468.5 1017.33,467.5 1018,466.5C 1022.51,461.661 1027.34,457.161 1032.5,453C 1037.36,450.81 1041.7,447.81 1045.5,444C 1047.59,443.555 1049.09,444.388 1050,446.5C 1051.93,449.614 1052.6,452.947 1052,456.5C 1049.83,458.667 1047.67,460.833 1045.5,463C 1046.09,463.464 1046.76,463.631 1047.5,463.5 Z"/></g>
    <g><path style="opacity:0.337" fill="#d4d3da" d="M 724.5,439.5 C 721.899,443.771 718.566,447.437 714.5,450.5C 717.101,446.229 720.434,442.563 724.5,439.5 Z"/></g>
    <g><path style="opacity:0.024" fill="#d2d4df" d="M 974.5,444.5 C 974.573,446.027 973.906,447.027 972.5,447.5C 972.427,445.973 973.094,444.973 974.5,444.5 Z"/></g>
    <g><path style="opacity:1" fill="#e1c491" d="M 452.5,528.5 C 449.595,530.756 447.928,533.756 447.5,537.5C 470.51,530.597 493.844,525.263 517.5,521.5C 526.741,521.52 526.741,522.186 517.5,523.5C 518.63,524.622 519.297,525.956 519.5,527.5C 488.7,539.277 458.034,551.777 427.5,565C 424.518,565.498 421.518,565.665 418.5,565.5C 412.595,562.813 411.095,558.48 414,552.5C 435,527.5 456,502.5 477,477.5C 479.583,474.003 481.916,470.336 484,466.5C 484.78,464.613 484.613,462.946 483.5,461.5C 474.348,460.506 465.015,460.173 455.5,460.5C 452.364,459.57 449.531,457.903 447,455.5C 446.333,453.833 446.333,452.167 447,450.5C 463.834,447.757 480.834,446.09 498,445.5C 501.5,446 505,446.5 508.5,447C 510.27,448.967 511.27,451.3 511.5,454C 498.248,477.3 481.748,498.133 462,516.5C 458.619,520.375 455.453,524.375 452.5,528.5 Z"/></g>
    <g><path style="opacity:1" fill="#e1c491" d="M 565.5,533.5 C 563.001,535.399 563.168,536.733 566,537.5C 587.773,530.51 609.939,525.177 632.5,521.5C 632.421,522.93 632.754,524.264 633.5,525.5C 630.658,526.004 629.325,527.671 629.5,530.5C 604.582,539.916 579.916,549.916 555.5,560.5C 555.5,559.5 555.5,558.5 555.5,557.5C 557.5,557.167 559.5,556.833 561.5,556.5C 561.5,555.5 561.5,554.5 561.5,553.5C 558.856,553.84 556.523,553.173 554.5,551.5C 553.186,552.313 552.019,553.313 551,554.5C 549.602,553.949 548.268,553.616 547,553.5C 541.488,560.082 536.654,559.416 532.5,551.5C 553.411,525.082 574.911,499.082 597,473.5C 598.518,470.464 600.018,467.464 601.5,464.5C 601.547,462.962 600.88,461.962 599.5,461.5C 590.348,460.506 581.015,460.173 571.5,460.5C 568.67,459.49 566.17,457.823 564,455.5C 563.333,453.833 563.333,452.167 564,450.5C 580.69,448.027 597.523,446.361 614.5,445.5C 628.983,446.428 631.816,452.762 623,464.5C 615.948,473.218 609.281,482.218 603,491.5C 589.551,504.775 577.051,518.775 565.5,533.5 Z"/></g>
    <g><path style="opacity:0.082" fill="#dcdde3" d="M 953.5,445.5 C 953.008,447.819 952.008,449.819 950.5,451.5C 950.461,448.911 951.461,446.911 953.5,445.5 Z"/></g>
    <g><path style="opacity:0.729" fill="#a9a9b5" d="M 787.5,416.5 C 790.488,418.338 793.488,419.005 796.5,418.5C 806.899,421.922 813.732,428.922 817,439.5C 817.651,441.235 817.485,442.902 816.5,444.5C 813.07,447.766 809.237,450.433 805,452.5C 800.412,449.75 796.245,446.417 792.5,442.5C 788.622,440.991 784.622,439.991 780.5,439.5C 775.381,438.897 770.715,439.564 766.5,441.5C 761.773,441.909 757.44,443.409 753.5,446C 747.661,449.689 741.994,453.522 736.5,457.5C 735.475,457.103 735.308,456.437 736,455.5C 750.856,440.659 768.69,434.826 789.5,438C 795.241,441.077 800.408,444.91 805,449.5C 807.752,448.414 810.252,446.914 812.5,445C 813.61,442.263 813.777,439.429 813,436.5C 810.552,432.385 807.719,428.552 804.5,425C 798.674,421.888 792.674,419.388 786.5,417.5C 787.167,417.5 787.5,417.167 787.5,416.5 Z"/></g>
    <g><path style="opacity:0.045" fill="#e2e1e5" d="M 780.5,439.5 C 775.971,440.273 771.305,440.94 766.5,441.5C 770.715,439.564 775.381,438.897 780.5,439.5 Z"/></g>
    <g><path style="opacity:0.545" fill="#9d9dab" d="M 978.5,436.5 C 978.5,437.5 978.5,438.5 978.5,439.5C 976.738,440.262 975.738,441.596 975.5,443.5C 975.5,444.167 975.167,444.5 974.5,444.5C 973.094,444.973 972.427,445.973 972.5,447.5C 971.751,450.201 970.751,452.868 969.5,455.5C 967.859,456.871 966.859,458.704 966.5,461C 966.639,462.301 967.305,463.134 968.5,463.5C 970.167,463.5 971.833,463.5 973.5,463.5C 979.208,463.492 979.541,463.992 974.5,465C 967.51,467.005 964.676,464.505 966,457.5C 969.079,452.855 971.412,447.855 973,442.5C 975.068,440.604 976.901,438.604 978.5,436.5 Z"/></g>
    <g><path style="opacity:0.12" fill="#dcdde5" d="M 1051.5,445.5 C 1055.24,448.599 1056.41,452.599 1055,457.5C 1054.62,458.056 1054.12,458.389 1053.5,458.5C 1053.85,453.969 1053.18,449.636 1051.5,445.5 Z"/></g>
    <g><path style="opacity:0.027" fill="#dadde8" d="M 972.5,447.5 C 973.172,450.942 972.172,453.609 969.5,455.5C 970.751,452.868 971.751,450.201 972.5,447.5 Z"/></g>
    <g><path style="opacity:0.333" fill="#cacad5" d="M 1031.5,451.5 C 1029.76,454.243 1027.43,456.243 1024.5,457.5C 1026.24,454.757 1028.57,452.757 1031.5,451.5 Z"/></g>
    <g><path style="opacity:0.824" fill="#a0a0ae" d="M 1051.5,445.5 C 1053.18,449.636 1053.85,453.969 1053.5,458.5C 1052.09,460.914 1050.09,462.581 1047.5,463.5C 1046.76,463.631 1046.09,463.464 1045.5,463C 1047.67,460.833 1049.83,458.667 1052,456.5C 1052.6,452.947 1051.93,449.614 1050,446.5C 1049.09,444.388 1047.59,443.555 1045.5,444C 1041.7,447.81 1037.36,450.81 1032.5,453C 1027.34,457.161 1022.51,461.661 1018,466.5C 1017.33,467.5 1017.33,468.5 1018,469.5C 1020.07,471.396 1021.9,473.396 1023.5,475.5C 1022.83,476.167 1022.17,476.833 1021.5,477.5C 1021.67,476.508 1021.34,475.842 1020.5,475.5C 1017.38,473.709 1015.38,471.043 1014.5,467.5C 1014.64,465.97 1015.31,464.97 1016.5,464.5C 1018.26,463.674 1019.6,462.341 1020.5,460.5C 1021.03,458.554 1022.37,457.554 1024.5,457.5C 1027.43,456.243 1029.76,454.243 1031.5,451.5C 1035.91,448.271 1040.25,444.771 1044.5,441C 1048.46,440.013 1050.79,441.513 1051.5,445.5 Z"/></g>
    <g><path style="opacity:1" fill="#e1c491" d="M 278.5,531.5 C 278.5,529.833 278.5,528.167 278.5,526.5C 277.698,520.071 278.864,514.071 282,508.5C 296.935,485.226 317.435,469.06 343.5,460C 351.136,458.764 358.803,458.43 366.5,459C 368.657,460.912 370.991,462.579 373.5,464C 375.922,466.003 376.755,468.503 376,471.5C 356.557,470.737 339.057,476.237 323.5,488C 315.721,493.479 308.888,499.979 303,507.5C 301.056,511.11 298.723,514.443 296,517.5C 294.632,520.738 294.299,524.072 295,527.5C 296.47,529.152 298.303,530.152 300.5,530.5C 307.722,528.223 314.722,525.39 321.5,522C 335.207,511.821 348.874,501.654 362.5,491.5C 365.104,492.269 366.938,493.936 368,496.5C 368.179,507.077 368.679,517.577 369.5,528C 376.843,526.886 383.843,524.552 390.5,521C 397.366,518.845 404.366,518.178 411.5,519C 415.53,522.957 415.197,526.623 410.5,530C 399.099,534.745 387.433,538.578 375.5,541.5C 372.433,541.393 369.433,540.893 366.5,540C 364.493,538.287 362.493,536.621 360.5,535C 356.514,528.172 352.18,521.672 347.5,515.5C 339.98,522.188 332.313,528.688 324.5,535C 314.432,541.599 303.432,544.599 291.5,544C 284.65,542.315 280.317,538.148 278.5,531.5 Z"/></g>
    <g><path style="opacity:0.629" fill="#a4cdd1" d="M 454.5,461.5 C 454.5,460.833 454.833,460.5 455.5,460.5C 465.015,460.173 474.348,460.506 483.5,461.5C 474.651,461.174 465.984,461.507 457.5,462.5C 456.391,462.443 455.391,462.11 454.5,461.5 Z"/></g>
    <g><path style="opacity:0.668" fill="#a4cccf" d="M 571.5,461.5 C 571.5,461.167 571.5,460.833 571.5,460.5C 581.015,460.173 590.348,460.506 599.5,461.5C 590.983,461.174 582.65,461.507 574.5,462.5C 573.391,462.443 572.391,462.11 571.5,461.5 Z"/></g>
    <g><path style="opacity:0.192" fill="#d3d4de" d="M 969.5,455.5 C 969.131,457.441 968.464,459.275 967.5,461C 968.252,461.671 968.586,462.504 968.5,463.5C 967.305,463.134 966.639,462.301 966.5,461C 966.859,458.704 967.859,456.871 969.5,455.5 Z"/></g>
    <g><path style="opacity:0.133" fill="#dadbe3" d="M 1020.5,460.5 C 1019.6,462.341 1018.26,463.674 1016.5,464.5C 1016.96,462.227 1018.29,460.894 1020.5,460.5 Z"/></g>
    <g><path style="opacity:0.783" fill="#88899d" d="M 990.5,461.5 C 990.833,461.5 991.167,461.5 991.5,461.5C 994.548,463.119 997.881,464.119 1001.5,464.5C 994.132,464.536 986.799,464.036 979.5,463C 983.356,462.823 987.023,462.323 990.5,461.5 Z"/></g>
    <g><path style="opacity:0.118" fill="#c4dde5" d="M 457.5,462.5 C 465.984,461.507 474.651,461.174 483.5,461.5C 484.613,462.946 484.78,464.613 484,466.5C 481.916,470.336 479.583,474.003 477,477.5C 456,502.5 435,527.5 414,552.5C 411.095,558.48 412.595,562.813 418.5,565.5C 418.5,566.167 418.5,566.833 418.5,567.5C 411.044,564.858 408.878,559.858 412,552.5C 433.957,525.541 456.29,498.874 479,472.5C 481.015,469.469 482.181,466.136 482.5,462.5C 474.167,462.5 465.833,462.5 457.5,462.5 Z"/></g>
    <g><path style="opacity:0.275" fill="#d1ced5" d="M 948.5,458.5 C 948.219,460.963 947.219,463.13 945.5,465C 942.5,466 939.5,467 936.5,468C 933.961,468.796 931.628,468.629 929.5,467.5C 934.753,467.183 939.753,466.017 944.5,464C 945.697,461.985 947.03,460.151 948.5,458.5 Z"/></g>
    <g><path style="opacity:0.133" fill="#c0dee9" d="M 452.5,529.5 C 452.5,529.167 452.5,528.833 452.5,528.5C 455.453,524.375 458.619,520.375 462,516.5C 481.748,498.133 498.248,477.3 511.5,454C 511.27,451.3 510.27,448.967 508.5,447C 505,446.5 501.5,446 498,445.5C 480.834,446.09 463.834,447.757 447,450.5C 446.333,452.167 446.333,453.833 447,455.5C 449.531,457.903 452.364,459.57 455.5,460.5C 454.833,460.5 454.5,460.833 454.5,461.5C 449.476,460.296 445.809,457.463 443.5,453C 444.359,450.947 445.692,449.28 447.5,448C 466.105,445.543 484.771,444.21 503.5,444C 506.053,444.761 508.553,445.594 511,446.5C 513.428,452.562 512.761,458.228 509,463.5C 502.28,471.886 495.947,480.553 490,489.5C 477.239,502.755 464.739,516.089 452.5,529.5 Z"/></g>
    <g><path style="opacity:0.84" fill="#a09eac" d="M 920.5,484.5 C 921.11,485.391 921.443,486.391 921.5,487.5C 919.973,487.573 918.973,486.906 918.5,485.5C 916.828,484.13 915.161,482.797 913.5,481.5C 913.5,479.167 913.5,476.833 913.5,474.5C 917.75,471.722 922.083,469.389 926.5,467.5C 927.5,467.5 928.5,467.5 929.5,467.5C 931.628,468.629 933.961,468.796 936.5,468C 939.5,467 942.5,466 945.5,465C 947.219,463.13 948.219,460.963 948.5,458.5C 949.793,457.158 950.626,455.491 951,453.5C 951.291,459.751 948.791,464.585 943.5,468C 934.731,469.287 926.064,470.954 917.5,473C 915.478,477.792 916.478,481.625 920.5,484.5 Z"/></g>
    <g><path style="opacity:0.384" fill="#cac9d2" d="M 926.5,467.5 C 922.083,469.389 917.75,471.722 913.5,474.5C 913.511,472.983 914.177,471.816 915.5,471C 919.143,469.674 922.81,468.508 926.5,467.5 Z"/></g>
    <g><path style="opacity:0.757" fill="#adadb8" d="M 1042.5,467.5 C 1037.37,470.138 1032.37,472.971 1027.5,476C 1027.73,476.399 1028.06,476.565 1028.5,476.5C 1027.22,477.715 1026.22,477.382 1025.5,475.5C 1025.41,474.504 1025.75,473.671 1026.5,473C 1030.83,470.667 1035.17,468.333 1039.5,466C 1041.16,465.275 1042.16,465.775 1042.5,467.5 Z"/></g>
    <g><path style="opacity:0.008" fill="#d2e7f5" d="M 374.5,473.5 C 367.329,474.358 359.995,475.024 352.5,475.5C 352.918,474.778 353.584,474.278 354.5,474C 361.158,473.5 367.825,473.334 374.5,473.5 Z"/></g>
    <g><path style="opacity:0.02" fill="#ededef" d="M 699.5,473.5 C 699.008,475.819 698.008,477.819 696.5,479.5C 696.461,476.911 697.461,474.911 699.5,473.5 Z"/></g>
    <g><path style="opacity:0.008" fill="#e6e6ec" d="M 1009.5,467.5 C 1010.75,468.334 1011.41,469.667 1011.5,471.5C 1011.33,472.833 1011.17,474.167 1011,475.5C 1010.33,476.252 1009.5,476.586 1008.5,476.5C 1010.68,473.737 1011.01,470.737 1009.5,467.5 Z"/></g>
    <g><path style="opacity:0.38" fill="#a7a7b4" d="M 889.5,478.5 C 890.262,480.262 891.596,481.262 893.5,481.5C 896.704,482.378 898.37,484.545 898.5,488C 898.478,490.183 897.478,491.683 895.5,492.5C 893.973,492.427 892.973,493.094 892.5,494.5C 892.167,494.5 891.833,494.5 891.5,494.5C 889.801,494.66 888.134,494.494 886.5,494C 897.065,491.659 898.065,487.326 889.5,481C 882.608,479.409 875.608,479.076 868.5,480C 855.262,484.709 843.429,491.875 833,501.5C 832.7,499.934 833.2,498.601 834.5,497.5C 835.625,495.871 836.959,494.371 838.5,493C 843.672,489.915 848.672,486.581 853.5,483C 856.377,481.873 859.377,481.206 862.5,481C 864.156,479.171 866.156,477.837 868.5,477C 874.833,476.333 881.167,476.333 887.5,477C 888.416,477.278 889.082,477.778 889.5,478.5 Z"/></g>
    <g><path style="opacity:0.702" fill="#7b7a96" d="M 1023.5,475.5 C 1024.17,475.5 1024.83,475.5 1025.5,475.5C 1026.22,477.382 1027.22,477.715 1028.5,476.5C 1029.17,476.5 1029.83,476.5 1030.5,476.5C 1030.5,477.833 1029.83,478.5 1028.5,478.5C 1026.17,478.5 1023.83,478.5 1021.5,478.5C 1021.5,478.167 1021.5,477.833 1021.5,477.5C 1022.17,476.833 1022.83,476.167 1023.5,475.5 Z"/></g>
    <g><path style="opacity:0.004" fill="#ebecf1" d="M 720.5,476.5 C 720.771,478.38 720.104,479.713 718.5,480.5C 718.66,478.847 719.326,477.514 720.5,476.5 Z"/></g>
    <g><path style="opacity:0.012" fill="#dedfe2" d="M 889.5,478.5 C 891.404,478.738 892.738,479.738 893.5,481.5C 891.596,481.262 890.262,480.262 889.5,478.5 Z"/></g>
    <g><path style="opacity:1" fill="#bebcba" d="M 1021.5,478.5 C 1023.83,478.5 1026.17,478.5 1028.5,478.5C 1034.21,478.873 1037.88,481.873 1039.5,487.5C 1038.95,489.61 1038.11,491.61 1037,493.5C 1030.89,499.613 1024.72,505.779 1018.5,512C 1011.46,516.236 1004.13,519.902 996.5,523C 991.646,526.936 990.479,531.769 993,537.5C 993.893,538.081 994.893,538.415 996,538.5C 1000.97,536.593 1005.8,534.593 1010.5,532.5C 1012.97,532.245 1014.97,531.245 1016.5,529.5C 1023.48,527.007 1030.14,523.84 1036.5,520C 1039.62,518.273 1042.95,517.439 1046.5,517.5C 1046.63,520.57 1046.3,523.57 1045.5,526.5C 1035.43,533.745 1024.76,539.912 1013.5,545C 1014.45,545.483 1015.45,545.649 1016.5,545.5C 1015.33,546.345 1014,547.011 1012.5,547.5C 1012.63,546.624 1012.3,545.957 1011.5,545.5C 1005.16,548.919 998.664,551.919 992,554.5C 982.705,552.127 975.872,546.793 971.5,538.5C 971.73,531.147 973.396,524.147 976.5,517.5C 986.313,498.343 1001.31,485.343 1021.5,478.5 Z"/></g>
    <g><path style="opacity:0.212" fill="#d3d4da" d="M 1020.5,475.5 C 1021.34,475.842 1021.67,476.508 1021.5,477.5C 1019.14,477.337 1016.81,477.503 1014.5,478C 1012.94,479.947 1010.94,481.114 1008.5,481.5C 1010.09,480.017 1011.76,478.517 1013.5,477C 1016.04,476.814 1018.37,476.314 1020.5,475.5 Z"/></g>
    <g><path style="opacity:0.012" fill="#e2e0e4" d="M 913.5,481.5 C 915.161,482.797 916.828,484.13 918.5,485.5C 915.656,485.657 913.989,484.324 913.5,481.5 Z"/></g>
    <g><path style="opacity:0.664" fill="#828195" d="M 920.5,484.5 C 925.167,484.5 929.833,484.5 934.5,484.5C 932.474,485.007 930.141,486.007 927.5,487.5C 925.5,487.5 923.5,487.5 921.5,487.5C 921.443,486.391 921.11,485.391 920.5,484.5 Z"/></g>
    <g><path style="opacity:0.949" fill="#a9a8b5" d="M 1021.5,477.5 C 1021.5,477.833 1021.5,478.167 1021.5,478.5C 1001.31,485.343 986.313,498.343 976.5,517.5C 976.062,516.494 975.396,516.494 974.5,517.5C 977.296,509.729 981.629,503.062 987.5,497.5C 990.215,495.452 992.548,493.118 994.5,490.5C 996.479,489.188 998.145,487.521 999.5,485.5C 1002.51,484.141 1005.51,482.808 1008.5,481.5C 1010.94,481.114 1012.94,479.947 1014.5,478C 1016.81,477.503 1019.14,477.337 1021.5,477.5 Z"/></g>
    <g><path style="opacity:0.196" fill="#d9d9df" d="M 696.5,480.5 C 695.228,483.348 694.395,486.348 694,489.5C 693.617,490.056 693.117,490.389 692.5,490.5C 693.06,488.199 693.56,485.866 694,483.5C 694.377,482.058 695.21,481.058 696.5,480.5 Z"/></g>
    <g><path style="opacity:0.09" fill="#dadce3" d="M 984.5,480.5 C 980.779,482.692 976.779,483.025 972.5,481.5C 969.855,482.108 967.188,482.608 964.5,483C 963.789,484.255 962.956,485.421 962,486.5C 960.885,491.313 959.719,495.98 958.5,500.5C 958.51,495.085 959.177,489.752 960.5,484.5C 961.646,483.855 962.646,483.022 963.5,482C 970.445,480.77 977.445,480.27 984.5,480.5 Z"/></g>
    <g><path style="opacity:0.957" fill="#a2a2af" d="M 991.5,461.5 C 997.521,460.965 1003.19,462.132 1008.5,465C 1009.25,465.671 1009.59,466.504 1009.5,467.5C 1011.01,470.737 1010.68,473.737 1008.5,476.5C 1006.15,479.075 1003.15,480.075 999.5,479.5C 999.389,478.883 999.056,478.383 998.5,478C 994.194,477.088 990.194,477.588 986.5,479.5C 986.158,480.338 985.492,480.672 984.5,480.5C 977.445,480.27 970.445,480.77 963.5,482C 962.646,483.022 961.646,483.855 960.5,484.5C 959.177,489.752 958.51,495.085 958.5,500.5C 956.787,501.635 956.12,503.302 956.5,505.5C 955.92,509.142 955.42,512.809 955,516.5C 954.14,519.633 952.64,522.3 950.5,524.5C 949.469,526.961 948.802,529.627 948.5,532.5C 948.672,533.492 948.338,534.158 947.5,534.5C 946.442,535.6 945.608,536.934 945,538.5C 944.833,537.833 944.667,537.167 944.5,536.5C 949.527,524.114 953.694,511.447 957,498.5C 957.101,493.054 957.768,487.721 959,482.5C 961.266,481.044 963.766,480.21 966.5,480C 973.644,479.913 980.644,478.913 987.5,477C 993.5,476.667 999.5,476.333 1005.5,476C 1010.51,473.621 1010.84,470.621 1006.5,467C 1004.51,466.626 1002.84,465.793 1001.5,464.5C 997.881,464.119 994.548,463.119 991.5,461.5 Z"/></g>
    <g><path style="opacity:0.051" fill="#d6d8e1" d="M 999.5,479.5 C 995.203,478.488 990.87,478.488 986.5,479.5C 990.194,477.588 994.194,477.088 998.5,478C 999.056,478.383 999.389,478.883 999.5,479.5 Z"/></g>
    <g><path style="opacity:0.082" fill="#e0e1e8" d="M 1039.5,482.5 C 1040.76,483.514 1041.43,485.014 1041.5,487C 1041.66,489.544 1041,491.71 1039.5,493.5C 1040.66,489.784 1040.66,486.117 1039.5,482.5 Z"/></g>
    <g><path style="opacity:0.055" fill="#e8eaed" d="M 939.5,485.5 C 940.917,488.34 940.584,491.007 938.5,493.5C 939.092,490.873 939.425,488.206 939.5,485.5 Z"/></g>
    <g><path style="opacity:0.216" fill="#dfe1e8" d="M 994.5,490.5 C 992.548,493.118 990.215,495.452 987.5,497.5C 987.511,495.983 988.177,494.816 989.5,494C 989.043,493.586 988.709,493.086 988.5,492.5C 990.495,491.705 992.495,491.039 994.5,490.5 Z"/></g>
    <g><path style="opacity:0.255" fill="#d5d8de" d="M 692.5,490.5 C 692.715,492.179 692.048,493.179 690.5,493.5C 690.427,491.973 691.094,490.973 692.5,490.5 Z"/></g>
    <g><path style="opacity:0.047" fill="#e0e3ed" d="M 714.5,486.5 C 713.94,488.801 713.44,491.134 713,493.5C 712.617,494.056 712.117,494.389 711.5,494.5C 712.06,492.199 712.56,489.866 713,487.5C 713.383,486.944 713.883,486.611 714.5,486.5 Z"/></g>
    <g><path style="opacity:0.024" fill="#dbdde3" d="M 895.5,492.5 C 895.027,493.906 894.027,494.573 892.5,494.5C 892.973,493.094 893.973,492.427 895.5,492.5 Z"/></g>
    <g><path style="opacity:0.8" fill="#a6a3ad" d="M 724.5,471.5 C 723.136,473.191 721.803,474.858 720.5,476.5C 719.326,477.514 718.66,478.847 718.5,480.5C 718.155,483.198 716.822,485.198 714.5,486.5C 713.883,486.611 713.383,486.944 713,487.5C 712.56,489.866 712.06,492.199 711.5,494.5C 709.065,498.058 707.732,502.058 707.5,506.5C 706.778,506.918 706.278,507.584 706,508.5C 705.333,515.5 705.333,522.5 706,529.5C 706.875,532.401 708.042,535.068 709.5,537.5C 710.822,539.311 711.322,541.311 711,543.5C 703.842,532.578 701.509,520.578 704,507.5C 707.055,500.337 709.722,493.004 712,485.5C 716.075,479.027 720.408,472.694 725,466.5C 725.889,465.112 726.389,465.278 726.5,467C 725.586,468.406 724.92,469.906 724.5,471.5 Z"/></g>
    <g><path style="opacity:0.063" fill="#c5c6cf" d="M 877.5,496.5 C 875.035,496.767 872.701,497.434 870.5,498.5C 870.881,497.069 871.881,496.236 873.5,496C 875.066,495.235 876.399,495.402 877.5,496.5 Z"/></g>
    <g><path style="opacity:0.149" fill="#d9dae6" d="M 711.5,494.5 C 710.739,498.784 709.405,502.784 707.5,506.5C 707.732,502.058 709.065,498.058 711.5,494.5 Z"/></g>
    <g><path style="opacity:0.518" fill="#a2a2ae" d="M 933.5,516.5 C 934.963,508.781 936.629,501.114 938.5,493.5C 940.584,491.007 940.917,488.34 939.5,485.5C 935.747,487.139 931.747,487.806 927.5,487.5C 930.141,486.007 932.474,485.007 934.5,484.5C 938.745,481.229 941.412,482.229 942.5,487.5C 940.068,497.456 937.068,507.123 933.5,516.5 Z"/></g>
    <g><path style="opacity:0.086" fill="#e4e3e7" d="M 690.5,496.5 C 691.853,498.128 691.519,499.462 689.5,500.5C 689.833,499.167 690.167,497.833 690.5,496.5 Z"/></g>
    <g><path style="opacity:0.808" fill="#aaaab4" d="M 878.5,495.5 C 878.5,496.167 878.167,496.5 877.5,496.5C 876.399,495.402 875.066,495.235 873.5,496C 871.881,496.236 870.881,497.069 870.5,498.5C 868.233,499.423 865.9,500.256 863.5,501C 860.949,503.1 858.283,504.933 855.5,506.5C 854.153,507.028 852.819,507.195 851.5,507C 858.893,500.136 867.559,495.636 877.5,493.5C 879.721,493.439 880.054,494.105 878.5,495.5 Z"/></g>
    <g><path style="opacity:0.447" fill="#aeadb8" d="M 879.5,497.5 C 878.833,499.167 878.167,500.833 877.5,502.5C 869.728,509.77 862.062,517.27 854.5,525C 851.167,527 847.833,529 844.5,531C 842.167,531.667 839.833,531.667 837.5,531C 836.653,524.828 838.819,519.662 844,515.5C 844.464,516.094 844.631,516.761 844.5,517.5C 842.178,518.802 840.845,520.802 840.5,523.5C 839.094,523.973 838.427,524.973 838.5,526.5C 838.389,527.117 838.056,527.617 837.5,528C 839.833,528.667 842.167,528.667 844.5,528C 846.82,525.838 849.487,524.338 852.5,523.5C 855.764,521.906 858.431,519.573 860.5,516.5C 866.419,509.915 872.752,503.581 879.5,497.5 Z"/></g>
    <g><path style="opacity:0.059" fill="#e0e1e6" d="M 938.5,493.5 C 936.629,501.114 934.963,508.781 933.5,516.5C 932.833,516.833 932.167,517.167 931.5,517.5C 933.082,509.107 935.415,501.107 938.5,493.5 Z"/></g>
    <g><path style="opacity:0.004" fill="#edeef1" d="M 1033.5,500.5 C 1033.5,501.833 1032.83,502.5 1031.5,502.5C 1031.83,501.5 1032.5,500.833 1033.5,500.5 Z"/></g>
    <g><path style="opacity:0.208" fill="#c2dee8" d="M 565.5,534.5 C 565.5,534.167 565.5,533.833 565.5,533.5C 577.051,518.775 589.551,504.775 603,491.5C 609.281,482.218 615.948,473.218 623,464.5C 631.816,452.762 628.983,446.428 614.5,445.5C 597.523,446.361 580.69,448.027 564,450.5C 563.333,452.167 563.333,453.833 564,455.5C 566.17,457.823 568.67,459.49 571.5,460.5C 571.5,460.833 571.5,461.167 571.5,461.5C 563.936,460.786 560.77,456.786 562,449.5C 562.75,448.874 563.584,448.374 564.5,448C 582.774,445.594 601.108,444.261 619.5,444C 628.605,445.199 631.605,450.199 628.5,459C 621.035,470.096 613.201,480.929 605,491.5C 591.315,505.352 578.149,519.685 565.5,534.5 Z"/></g>
    <g><path style="opacity:0.153" fill="#e0e1ea" d="M 958.5,500.5 C 958.204,502.403 957.537,504.07 956.5,505.5C 956.12,503.302 956.787,501.635 958.5,500.5 Z"/></g>
    <g><path style="opacity:0.849" fill="#908f9f" d="M 823.5,508.5 C 825.63,506.873 827.63,505.04 829.5,503C 830.167,502.333 830.833,502.333 831.5,503C 827.578,506.251 824.412,510.084 822,514.5C 821.678,512.311 822.178,510.311 823.5,508.5 Z"/></g>
    <g><path style="opacity:0.139" fill="#dbdae4" d="M 889.5,497.5 C 891.532,499.538 893.198,501.871 894.5,504.5C 894.404,508.35 894.238,512.35 894,516.5C 893.362,517.609 892.862,518.775 892.5,520C 893.713,521.63 894.546,523.464 895,525.5C 897.792,523.606 900.959,522.606 904.5,522.5C 900.986,524.007 897.319,525.34 893.5,526.5C 893.085,524.253 892.418,522.086 891.5,520C 893.841,512.228 893.174,504.728 889.5,497.5 Z"/></g>
    <g><path style="opacity:0.102" fill="#d4d3dd" d="M 707.5,506.5 C 705.72,517.03 706.387,527.363 709.5,537.5C 708.042,535.068 706.875,532.401 706,529.5C 705.333,522.5 705.333,515.5 706,508.5C 706.278,507.584 706.778,506.918 707.5,506.5 Z"/></g>
    <g><path style="opacity:0.678" fill="#aca9b5" d="M 1048.5,517.5 C 1047.83,517.5 1047.17,517.5 1046.5,517.5C 1042.95,517.439 1039.62,518.273 1036.5,520C 1030.14,523.84 1023.48,527.007 1016.5,529.5C 1016.83,528.833 1017.17,528.167 1017.5,527.5C 1025.77,522.427 1034.44,517.927 1043.5,514C 1046.93,512.762 1048.59,513.929 1048.5,517.5 Z"/></g>
    <g><path style="opacity:0.067" fill="#dfe0e8" d="M 818.5,516.5 C 818.245,518.967 817.245,520.967 815.5,522.5C 815.755,520.033 816.755,518.033 818.5,516.5 Z"/></g>
    <g><path style="opacity:0.847" fill="#9f9ca7" d="M 933.5,516.5 C 932.048,520.848 930.381,525.181 928.5,529.5C 927.893,529.376 927.56,529.043 927.5,528.5C 928.815,524.843 930.148,521.176 931.5,517.5C 932.167,517.167 932.833,516.833 933.5,516.5 Z"/></g>
    <g><path style="opacity:0.996" fill="#a5a2a9" d="M 699.5,473.5 C 700.376,473.369 701.043,473.702 701.5,474.5C 691.623,495.377 688.623,517.377 692.5,540.5C 692.36,542.03 691.693,543.03 690.5,543.5C 690.5,542.167 690.5,540.833 690.5,539.5C 689.537,526.549 689.204,513.549 689.5,500.5C 691.519,499.462 691.853,498.128 690.5,496.5C 690.5,495.5 690.5,494.5 690.5,493.5C 692.048,493.179 692.715,492.179 692.5,490.5C 693.117,490.389 693.617,490.056 694,489.5C 694.395,486.348 695.228,483.348 696.5,480.5C 696.5,480.167 696.5,479.833 696.5,479.5C 698.008,477.819 699.008,475.819 699.5,473.5 Z"/></g>
    <g><path style="opacity:0.337" fill="#c8c6d3" d="M 860.5,516.5 C 858.431,519.573 855.764,521.906 852.5,523.5C 854.569,520.427 857.236,518.094 860.5,516.5 Z"/></g>
    <g><path style="opacity:0.851" fill="#a09fac" d="M 889.5,497.5 C 893.174,504.728 893.841,512.228 891.5,520C 892.418,522.086 893.085,524.253 893.5,526.5C 897.319,525.34 900.986,524.007 904.5,522.5C 904.842,521.662 905.508,521.328 906.5,521.5C 911.305,520.94 915.971,520.273 920.5,519.5C 921.5,519.833 922.167,520.5 922.5,521.5C 923.471,523.483 924.471,525.483 925.5,527.5C 925.631,528.239 925.464,528.906 925,529.5C 923.347,524.341 919.847,521.674 914.5,521.5C 908.212,522.977 902.212,525.144 896.5,528C 895.056,528.781 893.723,528.614 892.5,527.5C 891.109,525.38 890.442,523.047 890.5,520.5C 891.399,515.85 891.566,511.183 891,506.5C 888.525,498.774 884.025,497.441 877.5,502.5C 878.167,500.833 878.833,499.167 879.5,497.5C 882.809,496.373 886.143,496.373 889.5,497.5 Z"/></g>
    <g><path style="opacity:0.236" fill="#d7d3dc" d="M 920.5,519.5 C 915.971,520.273 911.305,520.94 906.5,521.5C 907.958,519.989 909.791,518.989 912,518.5C 914.719,519.444 917.552,519.777 920.5,519.5 Z"/></g>
    <g><path style="opacity:0.957" fill="#9492a3" d="M 976.5,517.5 C 973.396,524.147 971.73,531.147 971.5,538.5C 970.272,534.892 970.272,530.559 971.5,525.5C 972.117,525.389 972.617,525.056 973,524.5C 973.44,522.134 973.94,519.801 974.5,517.5C 975.396,516.494 976.062,516.494 976.5,517.5 Z"/></g>
    <g><path style="opacity:0.439" fill="#92cedc" d="M 276.5,517.5 C 277.088,520.61 277.755,523.61 278.5,526.5C 278.5,528.167 278.5,529.833 278.5,531.5C 277.9,530.1 276.9,529.1 275.5,528.5C 275.185,524.629 275.518,520.962 276.5,517.5 Z"/></g>
    <g><path style="opacity:0.004" fill="#d2d5df" d="M 844.5,517.5 C 843.66,519.853 842.326,521.853 840.5,523.5C 840.845,520.802 842.178,518.802 844.5,517.5 Z"/></g>
    <g><path style="opacity:0.804" fill="#ababb7" d="M 1030.5,476.5 C 1034.56,476.884 1037.56,478.884 1039.5,482.5C 1040.66,486.117 1040.66,489.784 1039.5,493.5C 1038.22,496.447 1036.22,498.781 1033.5,500.5C 1032.5,500.833 1031.83,501.5 1031.5,502.5C 1021.94,513.864 1010.1,521.864 996,526.5C 995.55,528.519 994.717,530.352 993.5,532C 994.925,533.362 995.758,534.862 996,536.5C 998.235,534.798 1000.74,533.798 1003.5,533.5C 1005.76,532.781 1008.1,532.448 1010.5,532.5C 1005.8,534.593 1000.97,536.593 996,538.5C 994.893,538.415 993.893,538.081 993,537.5C 990.479,531.769 991.646,526.936 996.5,523C 1004.13,519.902 1011.46,516.236 1018.5,512C 1024.72,505.779 1030.89,499.613 1037,493.5C 1038.11,491.61 1038.95,489.61 1039.5,487.5C 1037.88,481.873 1034.21,478.873 1028.5,478.5C 1029.83,478.5 1030.5,477.833 1030.5,476.5 Z"/></g>
    <g><path style="opacity:0.871" fill="#84819c" d="M 1046.5,517.5 C 1047.17,517.5 1047.83,517.5 1048.5,517.5C 1048.5,518.167 1048.5,518.833 1048.5,519.5C 1048.02,522.078 1047.02,524.412 1045.5,526.5C 1046.3,523.57 1046.63,520.57 1046.5,517.5 Z"/></g>
    <g><path style="opacity:0.533" fill="#cbcbd5" d="M 974.5,517.5 C 973.94,519.801 973.44,522.134 973,524.5C 972.617,525.056 972.117,525.389 971.5,525.5C 971.603,522.364 972.603,519.698 974.5,517.5 Z"/></g>
    <g><path style="opacity:0.051" fill="#dadce6" d="M 840.5,523.5 C 840.573,525.027 839.906,526.027 838.5,526.5C 838.427,524.973 839.094,523.973 840.5,523.5 Z"/></g>
    <g><path style="opacity:0.031" fill="#dcdce0" d="M 931.5,517.5 C 930.148,521.176 928.815,524.843 927.5,528.5C 926.833,528.167 926.167,527.833 925.5,527.5C 924.471,525.483 923.471,523.483 922.5,521.5C 924.173,522.343 925.34,523.676 926,525.5C 928.114,522.907 929.947,520.24 931.5,517.5 Z"/></g>
    <g><path style="opacity:0.184" fill="#dad7de" d="M 689.5,500.5 C 689.204,513.549 689.537,526.549 690.5,539.5C 689.883,539.389 689.383,539.056 689,538.5C 686.997,525.644 687.163,512.977 689.5,500.5 Z"/></g>
    <g><path style="opacity:0.231" fill="#8d8ca5" d="M 818.5,534.5 C 818.167,534.5 817.833,534.5 817.5,534.5C 817.5,533.167 816.833,532.5 815.5,532.5C 815.5,529.167 815.5,525.833 815.5,522.5C 817.245,520.967 818.245,518.967 818.5,516.5C 819.65,515.15 820.317,515.316 820.5,517C 818.677,522.658 818.011,528.491 818.5,534.5 Z"/></g>
    <g><path style="opacity:0.075" fill="#d6d3dd" d="M 1017.5,527.5 C 1017.17,528.167 1016.83,528.833 1016.5,529.5C 1014.78,529.629 1013.12,529.962 1011.5,530.5C 1013.03,528.755 1015.03,527.755 1017.5,527.5 Z"/></g>
    <g><path style="opacity:0.49" fill="#adadbb" d="M 1048.5,519.5 C 1049.14,523.986 1047.8,527.653 1044.5,530.5C 1035.92,537.017 1026.59,542.017 1016.5,545.5C 1015.45,545.649 1014.45,545.483 1013.5,545C 1024.76,539.912 1035.43,533.745 1045.5,526.5C 1047.02,524.412 1048.02,522.078 1048.5,519.5 Z"/></g>
    <g><path style="opacity:0.486" fill="#bedae4" d="M 574.5,462.5 C 582.65,461.507 590.983,461.174 599.5,461.5C 600.88,461.962 601.547,462.962 601.5,464.5C 600.018,467.464 598.518,470.464 597,473.5C 574.911,499.082 553.411,525.082 532.5,551.5C 527.188,555.831 527.188,560.331 532.5,565C 535.406,566.318 538.406,566.652 541.5,566C 546.416,564.642 551.082,562.809 555.5,560.5C 579.916,549.916 604.582,539.916 629.5,530.5C 635.697,527.711 642.03,525.211 648.5,523C 649.337,521.989 649.67,520.822 649.5,519.5C 643.809,519.98 638.142,520.646 632.5,521.5C 609.939,525.177 587.773,530.51 566,537.5C 563.168,536.733 563.001,535.399 565.5,533.5C 565.5,533.833 565.5,534.167 565.5,534.5C 565.56,535.043 565.893,535.376 566.5,535.5C 594.263,526.76 622.43,520.76 651,517.5C 651.667,519.167 651.667,520.833 651,522.5C 616.518,536.966 582.018,551.466 547.5,566C 540.723,569.596 534.556,568.763 529,563.5C 526.679,558.416 527.345,553.75 531,549.5C 551.858,523.796 573.191,498.463 595,473.5C 597.072,470.029 598.572,466.362 599.5,462.5C 591.167,462.5 582.833,462.5 574.5,462.5 Z"/></g>
    <g><path style="opacity:1" fill="#d3c398" d="M 629.5,530.5 C 629.325,527.671 630.658,526.004 633.5,525.5C 632.754,524.264 632.421,522.93 632.5,521.5C 638.142,520.646 643.809,519.98 649.5,519.5C 649.67,520.822 649.337,521.989 648.5,523C 642.03,525.211 635.697,527.711 629.5,530.5 Z"/></g>
    <g><path style="opacity:0.016" fill="#dfdfe7" d="M 950.5,524.5 C 950.663,526.857 950.497,529.19 950,531.5C 949.617,532.056 949.117,532.389 948.5,532.5C 948.802,529.627 949.469,526.961 950.5,524.5 Z"/></g>
    <g><path style="opacity:0.78" fill="#9895a6" d="M 1016.5,529.5 C 1014.97,531.245 1012.97,532.245 1010.5,532.5C 1010.83,531.833 1011.17,531.167 1011.5,530.5C 1013.12,529.962 1014.78,529.629 1016.5,529.5 Z"/></g>
    <g><path style="opacity:0.314" fill="#a19fac" d="M 871.5,528.5 C 869.833,529.833 868.167,531.167 866.5,532.5C 866.565,532.062 866.399,531.728 866,531.5C 864.887,533.329 863.387,534.163 861.5,534C 863.833,531.667 866.167,529.333 868.5,527C 870.259,526.202 871.926,526.369 873.5,527.5C 874.869,532.414 874.203,532.747 871.5,528.5 Z"/></g>
    <g><path style="opacity:0.522" fill="#b6d5df" d="M 418.5,567.5 C 418.5,566.833 418.5,566.167 418.5,565.5C 421.518,565.665 424.518,565.498 427.5,565C 458.034,551.777 488.7,539.277 519.5,527.5C 538.489,520.049 537.822,518.049 517.5,521.5C 493.844,525.263 470.51,530.597 447.5,537.5C 447.928,533.756 449.595,530.756 452.5,528.5C 452.5,528.833 452.5,529.167 452.5,529.5C 451.952,531.394 450.952,533.06 449.5,534.5C 449.833,534.833 450.167,535.167 450.5,535.5C 477.677,526.808 505.344,520.808 533.5,517.5C 534.641,519.421 534.808,521.421 534,523.5C 499.246,537.307 464.746,551.474 430.5,566C 426.582,567.156 422.582,567.656 418.5,567.5 Z"/></g>
    <g><path style="opacity:1" fill="#d2c398" d="M 519.5,527.5 C 519.297,525.956 518.63,524.622 517.5,523.5C 526.741,522.186 526.741,521.52 517.5,521.5C 537.822,518.049 538.489,520.049 519.5,527.5 Z"/></g>
    <g><path style="opacity:0.216" fill="#d2d0d9" d="M 1011.5,530.5 C 1011.17,531.167 1010.83,531.833 1010.5,532.5C 1008.1,532.448 1005.76,532.781 1003.5,533.5C 1003.61,532.883 1003.94,532.383 1004.5,532C 1006.87,531.56 1009.2,531.06 1011.5,530.5 Z"/></g>
    <g><path style="opacity:0.314" fill="#bcd8e3" d="M 374.5,473.5 C 367.825,473.334 361.158,473.5 354.5,474C 353.584,474.278 352.918,474.778 352.5,475.5C 332.514,482.332 316.014,493.999 303,510.5C 299.272,514.951 296.938,519.951 296,525.5C 297.864,528.207 300.364,529.041 303.5,528C 310.414,524.474 317.414,521.14 324.5,518C 337.059,507.769 349.893,497.936 363,488.5C 367.359,490.866 370.026,494.533 371,499.5C 370.513,508.074 370.346,516.574 370.5,525C 372.5,525.667 374.5,525.667 376.5,525C 387.772,518.847 399.772,516.181 412.5,517C 417.405,520.962 417.739,525.296 413.5,530C 404.219,534.748 394.552,538.748 384.5,542C 373.278,545.562 364.111,542.729 357,533.5C 353.593,528.271 350.426,522.938 347.5,517.5C 339.27,525.233 330.604,532.399 321.5,539C 314.121,542.904 306.288,545.404 298,546.5C 285.799,546.112 278.299,540.112 275.5,528.5C 276.9,529.1 277.9,530.1 278.5,531.5C 280.317,538.148 284.65,542.315 291.5,544C 303.432,544.599 314.432,541.599 324.5,535C 332.313,528.688 339.98,522.188 347.5,515.5C 352.18,521.672 356.514,528.172 360.5,535C 362.493,536.621 364.493,538.287 366.5,540C 369.433,540.893 372.433,541.393 375.5,541.5C 387.433,538.578 399.099,534.745 410.5,530C 415.197,526.623 415.53,522.957 411.5,519C 404.366,518.178 397.366,518.845 390.5,521C 383.843,524.552 376.843,526.886 369.5,528C 368.679,517.577 368.179,507.077 368,496.5C 366.938,493.936 365.104,492.269 362.5,491.5C 348.874,501.654 335.207,511.821 321.5,522C 314.722,525.39 307.722,528.223 300.5,530.5C 298.303,530.152 296.47,529.152 295,527.5C 294.299,524.072 294.632,520.738 296,517.5C 298.723,514.443 301.056,511.11 303,507.5C 308.888,499.979 315.721,493.479 323.5,488C 339.057,476.237 356.557,470.737 376,471.5C 376.755,468.503 375.922,466.003 373.5,464C 370.991,462.579 368.657,460.912 366.5,459C 358.803,458.43 351.136,458.764 343.5,460C 317.435,469.06 296.935,485.226 282,508.5C 278.864,514.071 277.698,520.071 278.5,526.5C 277.755,523.61 277.088,520.61 276.5,517.5C 276.687,515.436 277.187,513.436 278,511.5C 290.213,492.287 306.047,476.787 325.5,465C 331.388,462.48 337.388,460.147 343.5,458C 351.149,456.945 358.815,456.612 366.5,457C 370.916,459.412 374.749,462.578 378,466.5C 378.667,468.5 378.667,470.5 378,472.5C 376.989,473.337 375.822,473.67 374.5,473.5 Z"/></g>
    <g><path style="opacity:0.039" fill="#e1e0e6" d="M 815.5,532.5 C 816.833,532.5 817.5,533.167 817.5,534.5C 817.557,535.609 817.89,536.609 818.5,537.5C 816.592,536.514 815.592,534.848 815.5,532.5 Z"/></g>
    <g><path style="opacity:0.784" fill="#a3a1af" d="M 921.5,543.5 C 921.328,542.508 921.662,541.842 922.5,541.5C 924.28,540.01 924.946,538.01 924.5,535.5C 921.169,535.018 918.503,536.018 916.5,538.5C 913.285,541.768 909.285,543.268 904.5,543C 900.319,545.895 895.652,547.062 890.5,546.5C 883.225,547.559 878.559,544.559 876.5,537.5C 875.972,536.153 875.805,534.819 876,533.5C 878.5,536.667 881,539.833 883.5,543C 888.5,543.667 893.5,543.667 898.5,543C 906.983,540.617 915.149,537.451 923,533.5C 923.833,533.833 924.667,534.167 925.5,534.5C 926.444,538.988 925.278,542.988 922,546.5C 921.517,545.552 921.351,544.552 921.5,543.5 Z"/></g>
    <g><path style="opacity:0.071" fill="#d6d6dd" d="M 922.5,541.5 C 923.434,539.761 923.434,538.095 922.5,536.5C 920.55,537.372 918.55,538.039 916.5,538.5C 918.503,536.018 921.169,535.018 924.5,535.5C 924.946,538.01 924.28,540.01 922.5,541.5 Z"/></g>
    <g><path style="opacity:0.153" fill="#dadbda" d="M 818.5,538.5 C 820.176,539.183 820.843,540.517 820.5,542.5C 818.097,542.448 815.764,542.781 813.5,543.5C 815.116,542.011 817.116,541.011 819.5,540.5C 819.137,539.817 818.804,539.15 818.5,538.5 Z"/></g>
    <g><path style="opacity:0.004" fill="#d5d6dd" d="M 857.5,539.5 C 855.97,541.346 853.97,542.346 851.5,542.5C 853.03,540.654 855.03,539.654 857.5,539.5 Z"/></g>
    <g><path style="opacity:0.741" fill="#a8a6b1" d="M 817.5,534.5 C 817.833,534.5 818.167,534.5 818.5,534.5C 821.392,536.762 822.392,539.595 821.5,543C 808.663,548.001 795.663,552.501 782.5,556.5C 779.364,556.603 776.698,557.603 774.5,559.5C 774.082,560.222 773.416,560.722 772.5,561C 767.718,561.119 763.051,561.785 758.5,563C 747.21,564.788 736.544,563.121 726.5,558C 725.402,557.23 725.402,556.397 726.5,555.5C 727.167,555.5 727.833,555.5 728.5,555.5C 729.035,557.446 730.368,558.446 732.5,558.5C 733.5,558.5 734.5,558.5 735.5,558.5C 736.053,560.552 737.053,560.885 738.5,559.5C 739.791,559.263 740.791,559.596 741.5,560.5C 741.611,561.117 741.944,561.617 742.5,562C 749.975,562.861 757.309,562.194 764.5,560C 765.056,559.617 765.389,559.117 765.5,558.5C 772.069,557.868 778.402,556.202 784.5,553.5C 786.915,554.648 788.915,553.982 790.5,551.5C 797.988,548.448 805.655,545.781 813.5,543.5C 815.764,542.781 818.097,542.448 820.5,542.5C 820.843,540.517 820.176,539.183 818.5,538.5C 818.5,538.167 818.5,537.833 818.5,537.5C 817.89,536.609 817.557,535.609 817.5,534.5 Z"/></g>
    <g><path style="opacity:0.851" fill="#aaa9b4" d="M 857.5,539.5 C 855.03,539.654 853.03,540.654 851.5,542.5C 848.765,545.201 845.431,546.868 841.5,547.5C 839.62,547.229 838.287,547.896 837.5,549.5C 835.326,549.92 833.326,549.92 831.5,549.5C 830.955,552.748 829.289,555.081 826.5,556.5C 825.153,557.028 823.819,557.195 822.5,557C 825.851,555.135 827.851,552.302 828.5,548.5C 831.447,547.679 834.447,547.179 837.5,547C 844.319,544.09 850.985,540.923 857.5,537.5C 858.463,537.97 858.463,538.637 857.5,539.5 Z"/></g>
    <g><path style="opacity:0.035" fill="#d1d1d9" d="M 841.5,547.5 C 840.486,548.674 839.153,549.34 837.5,549.5C 838.287,547.896 839.62,547.229 841.5,547.5 Z"/></g>
    <g><path style="opacity:0.051" fill="#e0dfe6" d="M 919.5,547.5 C 919.245,549.967 918.245,551.967 916.5,553.5C 916.755,551.033 917.755,549.033 919.5,547.5 Z"/></g>
    <g><path style="opacity:0.004" fill="#d2d2da" d="M 1010.5,548.5 C 1008.97,550.346 1006.97,551.346 1004.5,551.5C 1006.03,549.654 1008.03,548.654 1010.5,548.5 Z"/></g>
    <g><path style="opacity:1" fill="#dcc393" d="M 532.5,551.5 C 536.654,559.416 541.488,560.082 547,553.5C 548.268,553.616 549.602,553.949 551,554.5C 552.019,553.313 553.186,552.313 554.5,551.5C 556.523,553.173 558.856,553.84 561.5,553.5C 561.5,554.5 561.5,555.5 561.5,556.5C 559.5,556.833 557.5,557.167 555.5,557.5C 555.5,558.5 555.5,559.5 555.5,560.5C 551.082,562.809 546.416,564.642 541.5,566C 538.406,566.652 535.406,566.318 532.5,565C 527.188,560.331 527.188,555.831 532.5,551.5 Z"/></g>
    <g><path style="opacity:0.196" fill="#c8c5ce" d="M 790.5,551.5 C 788.915,553.982 786.915,554.648 784.5,553.5C 786.5,552.833 788.5,552.167 790.5,551.5 Z"/></g>
    <g><path style="opacity:0.863" fill="#afadbb" d="M 971.5,525.5 C 970.272,530.559 970.272,534.892 971.5,538.5C 975.872,546.793 982.705,552.127 992,554.5C 998.664,551.919 1005.16,548.919 1011.5,545.5C 1012.3,545.957 1012.63,546.624 1012.5,547.5C 1012.16,548.338 1011.49,548.672 1010.5,548.5C 1008.03,548.654 1006.03,549.654 1004.5,551.5C 998.096,556.676 991.096,557.509 983.5,554C 973.977,549.44 969.144,541.94 969,531.5C 969.24,529.148 970.073,527.148 971.5,525.5 Z"/></g>
    <g><path style="opacity:0.898" fill="#b3b3bc" d="M 941.5,548.5 C 939.324,553.68 936.324,558.347 932.5,562.5C 931.094,562.973 930.427,563.973 930.5,565.5C 929.624,565.631 928.957,565.298 928.5,564.5C 933.954,556.447 938.954,548.78 943.5,541.5C 942.423,543.729 941.756,546.063 941.5,548.5 Z"/></g>
    <g><path style="opacity:0.016" fill="#e9e7ec" d="M 728.5,555.5 C 730.23,556.026 731.564,557.026 732.5,558.5C 730.368,558.446 729.035,557.446 728.5,555.5 Z"/></g>
    <g><path style="opacity:0.867" fill="#908ea1" d="M 782.5,556.5 C 780.208,558.267 777.542,559.267 774.5,559.5C 776.698,557.603 779.364,556.603 782.5,556.5 Z"/></g>
    <g><path style="opacity:0.231" fill="#d4d1dc" d="M 735.5,558.5 C 736.609,558.557 737.609,558.89 738.5,559.5C 737.053,560.885 736.053,560.552 735.5,558.5 Z"/></g>
    <g><path style="opacity:0.239" fill="#d0cdd6" d="M 765.5,558.5 C 765.389,559.117 765.056,559.617 764.5,560C 757.309,562.194 749.975,562.861 742.5,562C 741.944,561.617 741.611,561.117 741.5,560.5C 743.949,561.042 746.449,561.375 749,561.5C 754.518,560.605 760.018,559.605 765.5,558.5 Z"/></g>
    <g><path style="opacity:0.831" fill="#888492" d="M 699.5,554.5 C 702.833,558.5 706.5,562.167 710.5,565.5C 710.158,566.338 709.492,566.672 708.5,566.5C 705.538,563.036 702.371,559.703 699,556.5C 698.308,555.563 698.475,554.897 699.5,554.5 Z"/></g>
    <g><path style="opacity:0.737" fill="#a3a3ae" d="M 818.5,561.5 C 814.749,562.973 811.083,564.64 807.5,566.5C 806.328,565.295 804.995,565.295 803.5,566.5C 802.304,566.154 802.304,565.654 803.5,565C 807.943,563.028 812.443,561.195 817,559.5C 818.03,559.836 818.53,560.503 818.5,561.5 Z"/></g>
    <g><path style="opacity:0.016" fill="#e9eaef" d="M 932.5,562.5 C 932.573,564.027 931.906,565.027 930.5,565.5C 930.427,563.973 931.094,562.973 932.5,562.5 Z"/></g>
    <g><path style="opacity:0.239" fill="#b1aeb9" d="M 699.5,554.5 C 698.475,554.897 698.308,555.563 699,556.5C 702.371,559.703 705.538,563.036 708.5,566.5C 703.188,563.188 698.855,558.855 695.5,553.5C 694.677,551.545 694.51,549.545 695,547.5C 696.012,550.202 697.512,552.535 699.5,554.5 Z"/></g>
    <g><path style="opacity:0.965" fill="#afacb6" d="M 919.5,547.5 C 920.376,547.369 921.043,547.702 921.5,548.5C 916.32,557.532 911.153,566.532 906,575.5C 905.678,573.311 906.178,571.311 907.5,569.5C 909.627,563.699 912.627,558.366 916.5,553.5C 918.245,551.967 919.245,549.967 919.5,547.5 Z"/></g>
    <g><path style="opacity:0.899" fill="#afacb6" d="M 710.5,565.5 C 716.345,570.754 723.011,574.42 730.5,576.5C 731.9,577.1 732.9,578.1 733.5,579.5C 723.541,578.023 715.208,573.689 708.5,566.5C 709.492,566.672 710.158,566.338 710.5,565.5 Z"/></g>
    <g><path style="opacity:0.796" fill="#ababb5" d="M 801.5,568.5 C 794.277,572.467 786.61,575.467 778.5,577.5C 778.5,576.833 778.5,576.167 778.5,575.5C 785.854,573.248 793.021,570.248 800,566.5C 801.03,566.836 801.53,567.503 801.5,568.5 Z"/></g>
    <g><path style="opacity:0.62" fill="#a39faf" d="M 778.5,575.5 C 778.5,576.167 778.5,576.833 778.5,577.5C 777.391,577.557 776.391,577.89 775.5,578.5C 775.083,577.876 774.416,577.543 773.5,577.5C 772.287,577.747 771.62,578.414 771.5,579.5C 763.164,580.064 754.831,580.731 746.5,581.5C 742.133,580.991 737.799,580.324 733.5,579.5C 732.9,578.1 731.9,577.1 730.5,576.5C 746.583,579.31 762.583,578.976 778.5,575.5 Z"/></g>
    <g><path style="opacity:0.024" fill="#d1d3da" d="M 775.5,578.5 C 774.041,578.433 772.708,578.766 771.5,579.5C 771.62,578.414 772.287,577.747 773.5,577.5C 774.416,577.543 775.083,577.876 775.5,578.5 Z"/></g>
    <g><path style="opacity:0.024" fill="#dee0e4" d="M 919.5,580.5 C 919.573,582.027 918.906,583.027 917.5,583.5C 917.427,581.973 918.094,580.973 919.5,580.5 Z"/></g>
    <g><path style="opacity:0.329" fill="#c8c7d1" d="M 900.5,581.5 C 900.031,584.643 898.364,586.977 895.5,588.5C 896.786,585.883 898.453,583.55 900.5,581.5 Z"/></g>
    <g><path style="opacity:0.843" fill="#9e9fab" d="M 920.5,579.5 C 920.5,580.167 920.167,580.5 919.5,580.5C 918.094,580.973 917.427,581.973 917.5,583.5C 915.833,585.833 913.833,587.833 911.5,589.5C 909.186,591.477 906.853,593.477 904.5,595.5C 904.167,595.333 903.833,595.167 903.5,595C 909.333,588.5 915.167,582 921,575.5C 921.195,576.819 921.028,578.153 920.5,579.5 Z"/></g>
    <g><path style="opacity:0.98" fill="#a3a1b0" d="M 900.5,581.5 C 901.376,581.369 902.043,581.702 902.5,582.5C 901.577,584.924 900.077,586.924 898,588.5C 897.502,591.817 897.335,595.15 897.5,598.5C 899.484,598.617 901.15,597.95 902.5,596.5C 903.298,596.957 903.631,597.624 903.5,598.5C 901.973,598.427 900.973,599.094 900.5,600.5C 897.692,602.167 895.525,601.5 894,598.5C 893.326,594.888 893.826,591.554 895.5,588.5C 898.364,586.977 900.031,584.643 900.5,581.5 Z"/></g>
    <g><path style="opacity:0.016" fill="#efeef0" d="M 903.5,598.5 C 903.027,599.906 902.027,600.573 900.5,600.5C 900.973,599.094 901.973,598.427 903.5,598.5 Z"/></g>
    <g><path style="opacity:0.086" fill="#cbe0e9" d="M 22.5,598.5 C 23.1667,598.833 23.8333,599.167 24.5,599.5C 26.686,605.507 29.186,611.507 32,617.5C 41.9849,636.802 51.9849,656.135 62,675.5C 67.3847,681.884 72.3847,688.55 77,695.5C 84.066,701.411 91.2327,707.078 98.5,712.5C 98.5,712.833 98.5,713.167 98.5,713.5C 91.3983,708.913 84.3983,704.079 77.5,699C 67.8917,687.62 59.3917,675.453 52,662.5C 45.1178,646.403 37.4511,630.736 29,615.5C 26.7947,609.772 24.628,604.105 22.5,598.5 Z"/></g>
    <g><path style="opacity:0.451" fill="#c4dae6" d="M 131.5,699.5 C 131.5,700.167 131.5,700.833 131.5,701.5C 127.922,702.589 124.255,702.755 120.5,702C 114.531,699.016 108.531,696.016 102.5,693C 97.3,688.135 92.4666,682.968 88,677.5C 79.7159,662.596 71.7159,647.596 64,632.5C 59.3902,618.669 54.3902,605.002 49,591.5C 45.5223,586.721 41.689,582.221 37.5,578C 36.1667,577.333 34.8333,577.333 33.5,578C 30.6667,580.833 27.8333,583.667 25,586.5C 24.501,590.821 24.3343,595.154 24.5,599.5C 23.8333,599.167 23.1667,598.833 22.5,598.5C 22.1744,594.116 22.5078,589.783 23.5,585.5C 26.0115,582.489 28.6782,579.656 31.5,577C 33.212,575.249 35.212,574.582 37.5,575C 42.2579,579.367 46.4246,584.2 50,589.5C 55.5923,603.694 60.9257,618.028 66,632.5C 73.8982,648.066 82.2316,663.4 91,678.5C 95.1937,683.36 99.6937,687.86 104.5,692C 109.349,694.59 114.349,696.924 119.5,699C 123.486,699.499 127.486,699.666 131.5,699.5 Z"/></g>
    <g><path style="opacity:0.18" fill="#c9e1ea" d="M 296.5,368.5 C 298.096,370.832 299.262,373.499 300,376.5C 300.667,378.5 300.667,380.5 300,382.5C 276.701,447.056 253.367,511.722 230,576.5C 216.231,608.041 201.898,639.375 187,670.5C 180.547,681.096 173.381,691.096 165.5,700.5C 164.833,700.5 164.167,700.5 163.5,700.5C 172.22,690.738 179.72,680.072 186,668.5C 198.907,641.014 211.574,613.347 224,585.5C 248.767,519.187 273.1,452.854 297,386.5C 298.762,381.126 298.595,375.793 296.5,370.5C 296.5,369.833 296.5,369.167 296.5,368.5 Z"/></g>
    <g><path style="opacity:0.004" fill="#bbbccb" d="M 870.5,665.5 C 871.289,665.783 871.956,666.283 872.5,667C 871.184,667.528 870.517,667.028 870.5,665.5 Z"/></g>
    <g><path style="opacity:0.004" fill="#b7d7e2" d="M 163.5,700.5 C 164.167,700.5 164.833,700.5 165.5,700.5C 157.645,711.922 146.979,719.089 133.5,722C 126.49,722.668 119.49,723.001 112.5,723C 107.403,720.391 102.736,717.225 98.5,713.5C 98.5,713.167 98.5,712.833 98.5,712.5C 103.305,715.071 107.972,717.904 112.5,721C 122.916,721.048 133.249,720.048 143.5,718C 151.274,713.39 157.941,707.557 163.5,700.5 Z"/></g>
</svg>
